<mxfile host="app.diagrams.net" modified="2023-06-01T09:35:45.122Z" agent="Mozilla/5.0 (Windows NT 10.0; Win64; x64) AppleWebKit/537.36 (KHTML, like Gecko) Chrome/113.0.0.0 Safari/537.36" etag="q1oLsXT-bos9wF62EbbF" version="21.3.6" type="github">
  <diagram id="prtHgNgQTEPvFCAcTncT" name="Page-1">
    <mxGraphModel dx="1372" dy="2016" grid="1" gridSize="10" guides="1" tooltips="1" connect="1" arrows="1" fold="1" page="1" pageScale="1" pageWidth="827" pageHeight="1169" math="0" shadow="0">
      <root>
        <mxCell id="0" />
        <mxCell id="1" parent="0" />
        <mxCell id="978ElA3VIhU77aSODHw8-4" style="edgeStyle=orthogonalEdgeStyle;rounded=0;orthogonalLoop=1;jettySize=auto;html=1;exitX=1;exitY=0.5;exitDx=0;exitDy=0;" edge="1" parent="1" source="978ElA3VIhU77aSODHw8-1" target="978ElA3VIhU77aSODHw8-2">
          <mxGeometry relative="1" as="geometry">
            <Array as="points">
              <mxPoint x="150" y="300" />
              <mxPoint x="150" y="35" />
            </Array>
          </mxGeometry>
        </mxCell>
        <mxCell id="978ElA3VIhU77aSODHw8-5" style="edgeStyle=orthogonalEdgeStyle;rounded=0;orthogonalLoop=1;jettySize=auto;html=1;exitX=1;exitY=0.5;exitDx=0;exitDy=0;" edge="1" parent="1" source="978ElA3VIhU77aSODHw8-1" target="978ElA3VIhU77aSODHw8-3">
          <mxGeometry relative="1" as="geometry">
            <Array as="points">
              <mxPoint x="150" y="300" />
              <mxPoint x="150" y="585" />
            </Array>
          </mxGeometry>
        </mxCell>
        <mxCell id="978ElA3VIhU77aSODHw8-1" value="&lt;font style=&quot;font-size: 18px;&quot;&gt;公司销售管理系统&lt;/font&gt;" style="rounded=0;whiteSpace=wrap;html=1;shadow=0;" vertex="1" parent="1">
          <mxGeometry x="70" y="190" width="30" height="220" as="geometry" />
        </mxCell>
        <mxCell id="978ElA3VIhU77aSODHw8-36" style="edgeStyle=orthogonalEdgeStyle;rounded=0;orthogonalLoop=1;jettySize=auto;html=1;exitX=1;exitY=0.5;exitDx=0;exitDy=0;entryX=0;entryY=0.5;entryDx=0;entryDy=0;" edge="1" parent="1" source="978ElA3VIhU77aSODHw8-2" target="978ElA3VIhU77aSODHw8-10">
          <mxGeometry relative="1" as="geometry" />
        </mxCell>
        <mxCell id="978ElA3VIhU77aSODHw8-45" style="edgeStyle=orthogonalEdgeStyle;rounded=0;orthogonalLoop=1;jettySize=auto;html=1;exitX=1;exitY=0.5;exitDx=0;exitDy=0;entryX=0;entryY=0.5;entryDx=0;entryDy=0;" edge="1" parent="1" source="978ElA3VIhU77aSODHw8-2" target="978ElA3VIhU77aSODHw8-29">
          <mxGeometry relative="1" as="geometry" />
        </mxCell>
        <mxCell id="978ElA3VIhU77aSODHw8-48" style="edgeStyle=orthogonalEdgeStyle;rounded=0;orthogonalLoop=1;jettySize=auto;html=1;exitX=1;exitY=0.5;exitDx=0;exitDy=0;entryX=0;entryY=0.5;entryDx=0;entryDy=0;" edge="1" parent="1" source="978ElA3VIhU77aSODHw8-2" target="978ElA3VIhU77aSODHw8-37">
          <mxGeometry relative="1" as="geometry" />
        </mxCell>
        <mxCell id="978ElA3VIhU77aSODHw8-2" value="&lt;font style=&quot;font-size: 18px;&quot;&gt;员工管理&lt;/font&gt;" style="rounded=0;whiteSpace=wrap;html=1;" vertex="1" parent="1">
          <mxGeometry x="190" y="20" width="120" height="30" as="geometry" />
        </mxCell>
        <mxCell id="978ElA3VIhU77aSODHw8-18" style="edgeStyle=orthogonalEdgeStyle;rounded=0;orthogonalLoop=1;jettySize=auto;html=1;exitX=1;exitY=0.5;exitDx=0;exitDy=0;entryX=0;entryY=0.5;entryDx=0;entryDy=0;" edge="1" parent="1" source="978ElA3VIhU77aSODHw8-3" target="978ElA3VIhU77aSODHw8-6">
          <mxGeometry relative="1" as="geometry" />
        </mxCell>
        <mxCell id="978ElA3VIhU77aSODHw8-19" style="edgeStyle=orthogonalEdgeStyle;rounded=0;orthogonalLoop=1;jettySize=auto;html=1;exitX=1;exitY=0.5;exitDx=0;exitDy=0;entryX=0;entryY=0.5;entryDx=0;entryDy=0;" edge="1" parent="1" source="978ElA3VIhU77aSODHw8-3" target="978ElA3VIhU77aSODHw8-17">
          <mxGeometry relative="1" as="geometry" />
        </mxCell>
        <mxCell id="978ElA3VIhU77aSODHw8-20" style="edgeStyle=orthogonalEdgeStyle;rounded=0;orthogonalLoop=1;jettySize=auto;html=1;exitX=1;exitY=0.5;exitDx=0;exitDy=0;entryX=0;entryY=0.25;entryDx=0;entryDy=0;" edge="1" parent="1" source="978ElA3VIhU77aSODHw8-3" target="978ElA3VIhU77aSODHw8-16">
          <mxGeometry relative="1" as="geometry" />
        </mxCell>
        <mxCell id="978ElA3VIhU77aSODHw8-3" value="&lt;span style=&quot;font-size: 18px;&quot;&gt;客户管理&lt;/span&gt;" style="rounded=0;whiteSpace=wrap;html=1;" vertex="1" parent="1">
          <mxGeometry x="190" y="570" width="120" height="30" as="geometry" />
        </mxCell>
        <mxCell id="978ElA3VIhU77aSODHw8-21" style="edgeStyle=orthogonalEdgeStyle;rounded=0;orthogonalLoop=1;jettySize=auto;html=1;exitX=1;exitY=0.5;exitDx=0;exitDy=0;entryX=0;entryY=0.5;entryDx=0;entryDy=0;" edge="1" parent="1" source="978ElA3VIhU77aSODHw8-6" target="978ElA3VIhU77aSODHw8-15">
          <mxGeometry relative="1" as="geometry" />
        </mxCell>
        <mxCell id="978ElA3VIhU77aSODHw8-22" style="edgeStyle=orthogonalEdgeStyle;rounded=0;orthogonalLoop=1;jettySize=auto;html=1;exitX=1;exitY=0.5;exitDx=0;exitDy=0;entryX=0;entryY=0.5;entryDx=0;entryDy=0;" edge="1" parent="1" source="978ElA3VIhU77aSODHw8-6" target="978ElA3VIhU77aSODHw8-14">
          <mxGeometry relative="1" as="geometry" />
        </mxCell>
        <mxCell id="978ElA3VIhU77aSODHw8-6" value="&lt;span style=&quot;font-size: 18px;&quot;&gt;注册登录&lt;/span&gt;" style="rounded=0;whiteSpace=wrap;html=1;" vertex="1" parent="1">
          <mxGeometry x="370" y="420" width="120" height="30" as="geometry" />
        </mxCell>
        <mxCell id="978ElA3VIhU77aSODHw8-8" value="&lt;span style=&quot;font-size: 18px;&quot;&gt;业务信息修改&lt;/span&gt;" style="rounded=0;whiteSpace=wrap;html=1;" vertex="1" parent="1">
          <mxGeometry x="620" y="120" width="120" height="30" as="geometry" />
        </mxCell>
        <mxCell id="978ElA3VIhU77aSODHw8-9" value="&lt;span style=&quot;font-size: 18px;&quot;&gt;基本信息管理&lt;/span&gt;" style="rounded=0;whiteSpace=wrap;html=1;" vertex="1" parent="1">
          <mxGeometry x="620" y="-180" width="120" height="30" as="geometry" />
        </mxCell>
        <mxCell id="978ElA3VIhU77aSODHw8-33" style="edgeStyle=orthogonalEdgeStyle;rounded=0;orthogonalLoop=1;jettySize=auto;html=1;exitX=1;exitY=0.5;exitDx=0;exitDy=0;entryX=0;entryY=0.5;entryDx=0;entryDy=0;" edge="1" parent="1" source="978ElA3VIhU77aSODHw8-10" target="978ElA3VIhU77aSODHw8-9">
          <mxGeometry relative="1" as="geometry">
            <Array as="points">
              <mxPoint x="555" y="-95" />
              <mxPoint x="555" y="-165" />
            </Array>
          </mxGeometry>
        </mxCell>
        <mxCell id="978ElA3VIhU77aSODHw8-34" style="edgeStyle=orthogonalEdgeStyle;rounded=0;orthogonalLoop=1;jettySize=auto;html=1;exitX=1;exitY=0.5;exitDx=0;exitDy=0;entryX=0;entryY=0.5;entryDx=0;entryDy=0;" edge="1" parent="1" source="978ElA3VIhU77aSODHw8-10" target="978ElA3VIhU77aSODHw8-32">
          <mxGeometry relative="1" as="geometry" />
        </mxCell>
        <mxCell id="978ElA3VIhU77aSODHw8-35" style="edgeStyle=orthogonalEdgeStyle;rounded=0;orthogonalLoop=1;jettySize=auto;html=1;exitX=1;exitY=0.5;exitDx=0;exitDy=0;entryX=0;entryY=0.5;entryDx=0;entryDy=0;" edge="1" parent="1" source="978ElA3VIhU77aSODHw8-10" target="978ElA3VIhU77aSODHw8-31">
          <mxGeometry relative="1" as="geometry" />
        </mxCell>
        <mxCell id="978ElA3VIhU77aSODHw8-10" value="&lt;font style=&quot;font-size: 18px;&quot;&gt;员工信息管理&lt;/font&gt;" style="rounded=0;whiteSpace=wrap;html=1;" vertex="1" parent="1">
          <mxGeometry x="370" y="-110" width="120" height="30" as="geometry" />
        </mxCell>
        <mxCell id="978ElA3VIhU77aSODHw8-11" value="&lt;span style=&quot;font-size: 18px;&quot;&gt;开票&lt;/span&gt;" style="rounded=0;whiteSpace=wrap;html=1;" vertex="1" parent="1">
          <mxGeometry x="550" y="630" width="120" height="30" as="geometry" />
        </mxCell>
        <mxCell id="978ElA3VIhU77aSODHw8-12" value="&lt;font style=&quot;font-size: 18px;&quot;&gt;支付&lt;/font&gt;" style="rounded=0;whiteSpace=wrap;html=1;" vertex="1" parent="1">
          <mxGeometry x="550" y="590" width="120" height="30" as="geometry" />
        </mxCell>
        <mxCell id="978ElA3VIhU77aSODHw8-13" value="&lt;span style=&quot;font-size: 18px;&quot;&gt;选购辅料&lt;/span&gt;" style="rounded=0;whiteSpace=wrap;html=1;" vertex="1" parent="1">
          <mxGeometry x="550" y="550" width="120" height="30" as="geometry" />
        </mxCell>
        <mxCell id="978ElA3VIhU77aSODHw8-14" value="&lt;font style=&quot;font-size: 18px;&quot;&gt;客户注册&lt;/font&gt;" style="rounded=0;whiteSpace=wrap;html=1;" vertex="1" parent="1">
          <mxGeometry x="550" y="460" width="120" height="30" as="geometry" />
        </mxCell>
        <mxCell id="978ElA3VIhU77aSODHw8-15" value="&lt;span style=&quot;font-size: 18px;&quot;&gt;客户登录&lt;/span&gt;" style="rounded=0;whiteSpace=wrap;html=1;" vertex="1" parent="1">
          <mxGeometry x="550" y="390" width="120" height="30" as="geometry" />
        </mxCell>
        <mxCell id="978ElA3VIhU77aSODHw8-16" value="&lt;span style=&quot;font-size: 18px;&quot;&gt;查询订单&lt;/span&gt;" style="rounded=0;whiteSpace=wrap;html=1;" vertex="1" parent="1">
          <mxGeometry x="370" y="720" width="120" height="30" as="geometry" />
        </mxCell>
        <mxCell id="978ElA3VIhU77aSODHw8-23" style="edgeStyle=orthogonalEdgeStyle;rounded=0;orthogonalLoop=1;jettySize=auto;html=1;exitX=1;exitY=0.5;exitDx=0;exitDy=0;entryX=0;entryY=0.5;entryDx=0;entryDy=0;" edge="1" parent="1" source="978ElA3VIhU77aSODHw8-17" target="978ElA3VIhU77aSODHw8-13">
          <mxGeometry relative="1" as="geometry" />
        </mxCell>
        <mxCell id="978ElA3VIhU77aSODHw8-24" style="edgeStyle=orthogonalEdgeStyle;rounded=0;orthogonalLoop=1;jettySize=auto;html=1;exitX=1;exitY=0.5;exitDx=0;exitDy=0;entryX=0;entryY=0.5;entryDx=0;entryDy=0;" edge="1" parent="1" source="978ElA3VIhU77aSODHw8-17" target="978ElA3VIhU77aSODHw8-12">
          <mxGeometry relative="1" as="geometry" />
        </mxCell>
        <mxCell id="978ElA3VIhU77aSODHw8-25" style="edgeStyle=orthogonalEdgeStyle;rounded=0;orthogonalLoop=1;jettySize=auto;html=1;exitX=1;exitY=0.5;exitDx=0;exitDy=0;entryX=0;entryY=0.5;entryDx=0;entryDy=0;" edge="1" parent="1" source="978ElA3VIhU77aSODHw8-17" target="978ElA3VIhU77aSODHw8-11">
          <mxGeometry relative="1" as="geometry" />
        </mxCell>
        <mxCell id="978ElA3VIhU77aSODHw8-27" style="edgeStyle=orthogonalEdgeStyle;rounded=0;orthogonalLoop=1;jettySize=auto;html=1;exitX=1;exitY=0.5;exitDx=0;exitDy=0;entryX=0;entryY=0.5;entryDx=0;entryDy=0;" edge="1" parent="1" source="978ElA3VIhU77aSODHw8-17" target="978ElA3VIhU77aSODHw8-26">
          <mxGeometry relative="1" as="geometry" />
        </mxCell>
        <mxCell id="978ElA3VIhU77aSODHw8-17" value="&lt;span style=&quot;font-size: 18px;&quot;&gt;订购辅料&lt;/span&gt;" style="rounded=0;whiteSpace=wrap;html=1;" vertex="1" parent="1">
          <mxGeometry x="370" y="570" width="120" height="30" as="geometry" />
        </mxCell>
        <mxCell id="978ElA3VIhU77aSODHw8-26" value="&lt;span style=&quot;font-size: 18px;&quot;&gt;查询辅料&lt;/span&gt;" style="rounded=0;whiteSpace=wrap;html=1;" vertex="1" parent="1">
          <mxGeometry x="550" y="510" width="120" height="30" as="geometry" />
        </mxCell>
        <mxCell id="978ElA3VIhU77aSODHw8-28" value="&lt;span style=&quot;font-size: 18px;&quot;&gt;业务信息查询&lt;/span&gt;" style="rounded=0;whiteSpace=wrap;html=1;" vertex="1" parent="1">
          <mxGeometry x="620" y="50" width="120" height="30" as="geometry" />
        </mxCell>
        <mxCell id="978ElA3VIhU77aSODHw8-40" style="edgeStyle=orthogonalEdgeStyle;rounded=0;orthogonalLoop=1;jettySize=auto;html=1;exitX=1;exitY=0.5;exitDx=0;exitDy=0;entryX=0;entryY=0.5;entryDx=0;entryDy=0;" edge="1" parent="1" source="978ElA3VIhU77aSODHw8-29" target="978ElA3VIhU77aSODHw8-28">
          <mxGeometry relative="1" as="geometry" />
        </mxCell>
        <mxCell id="978ElA3VIhU77aSODHw8-41" style="edgeStyle=orthogonalEdgeStyle;rounded=0;orthogonalLoop=1;jettySize=auto;html=1;exitX=1;exitY=0.5;exitDx=0;exitDy=0;entryX=0;entryY=0.5;entryDx=0;entryDy=0;" edge="1" parent="1" source="978ElA3VIhU77aSODHw8-29" target="978ElA3VIhU77aSODHw8-8">
          <mxGeometry relative="1" as="geometry" />
        </mxCell>
        <mxCell id="978ElA3VIhU77aSODHw8-43" style="edgeStyle=orthogonalEdgeStyle;rounded=0;orthogonalLoop=1;jettySize=auto;html=1;exitX=1;exitY=0.5;exitDx=0;exitDy=0;entryX=0;entryY=0.5;entryDx=0;entryDy=0;" edge="1" parent="1" source="978ElA3VIhU77aSODHw8-29" target="978ElA3VIhU77aSODHw8-39">
          <mxGeometry relative="1" as="geometry" />
        </mxCell>
        <mxCell id="978ElA3VIhU77aSODHw8-44" style="edgeStyle=orthogonalEdgeStyle;rounded=0;orthogonalLoop=1;jettySize=auto;html=1;exitX=1;exitY=0.5;exitDx=0;exitDy=0;entryX=0;entryY=0.5;entryDx=0;entryDy=0;" edge="1" parent="1" source="978ElA3VIhU77aSODHw8-29" target="978ElA3VIhU77aSODHw8-38">
          <mxGeometry relative="1" as="geometry" />
        </mxCell>
        <mxCell id="978ElA3VIhU77aSODHw8-29" value="&lt;span style=&quot;font-size: 18px;&quot;&gt;员工业务信息表管理&lt;/span&gt;" style="rounded=0;whiteSpace=wrap;html=1;" vertex="1" parent="1">
          <mxGeometry x="370" y="160" width="180" height="30" as="geometry" />
        </mxCell>
        <mxCell id="978ElA3VIhU77aSODHw8-31" value="&lt;span style=&quot;font-size: 18px;&quot;&gt;账户信息管理&lt;/span&gt;" style="rounded=0;whiteSpace=wrap;html=1;" vertex="1" parent="1">
          <mxGeometry x="620" y="-40" width="120" height="30" as="geometry" />
        </mxCell>
        <mxCell id="978ElA3VIhU77aSODHw8-32" value="&lt;span style=&quot;font-size: 18px;&quot;&gt;职权信息管理&lt;/span&gt;" style="rounded=0;whiteSpace=wrap;html=1;" vertex="1" parent="1">
          <mxGeometry x="620" y="-110" width="120" height="30" as="geometry" />
        </mxCell>
        <mxCell id="978ElA3VIhU77aSODHw8-37" value="&lt;span style=&quot;font-size: 18px;&quot;&gt;员工登录&lt;/span&gt;" style="rounded=0;whiteSpace=wrap;html=1;" vertex="1" parent="1">
          <mxGeometry x="370" y="-260" width="120" height="30" as="geometry" />
        </mxCell>
        <mxCell id="978ElA3VIhU77aSODHw8-38" value="&lt;font style=&quot;font-size: 18px;&quot;&gt;业务信息删除&lt;/font&gt;" style="rounded=0;whiteSpace=wrap;html=1;" vertex="1" parent="1">
          <mxGeometry x="620" y="260" width="120" height="30" as="geometry" />
        </mxCell>
        <mxCell id="978ElA3VIhU77aSODHw8-39" value="&lt;span style=&quot;font-size: 18px;&quot;&gt;业务信息添加&lt;/span&gt;" style="rounded=0;whiteSpace=wrap;html=1;" vertex="1" parent="1">
          <mxGeometry x="620" y="190" width="120" height="30" as="geometry" />
        </mxCell>
      </root>
    </mxGraphModel>
  </diagram>
</mxfile>
